<?xml version="1.0" encoding="utf-8"?>
<!-- Generator: Adobe Illustrator 16.0.0, SVG Export Plug-In . SVG Version: 6.00 Build 0)  -->
<!DOCTYPE svg PUBLIC "-//W3C//DTD SVG 1.1//EN" "http://www.w3.org/Graphics/SVG/1.1/DTD/svg11.dtd">
<svg version="1.1" id="Camada_1" xmlns="http://www.w3.org/2000/svg" xmlns:xlink="http://www.w3.org/1999/xlink" x="0px" y="0px"
	 width="123px" height="60px" viewBox="0 0 123 60" enable-background="new 0 0 123 60" xml:space="preserve">
<path fill="none" d="M28.226,35.046c-1.677-1.676-2.994-3.63-3.913-5.804c-0.953-2.252-1.436-4.644-1.436-7.109
	c0-0.079,0-0.158,0.001-0.235c-9.037,0.347-16.281,7.807-16.281,16.927c0,9.341,7.599,16.94,16.94,16.94
	c8.817,0,16.082-6.771,16.87-15.386c-2.207-0.086-4.349-0.562-6.377-1.42C31.855,38.04,29.902,36.723,28.226,35.046z"/>
<path fill="none" d="M24.2,21.897c-0.001,0.078-0.002,0.157-0.002,0.235c0,9.119,7.243,16.578,16.278,16.927
	c0.001-0.078,0.002-0.156,0.002-0.235C40.478,29.706,33.235,22.247,24.2,21.897z"/>
<g>
	<path fill="#5B69AF" d="M49.053,57.481c-1.536,0-2.933-0.332-4.19-0.993c-1.258-0.662-2.251-1.635-2.979-2.92
		c-0.729-1.284-1.092-2.853-1.092-4.707c0-1.827,0.383-3.408,1.152-4.746c0.768-1.337,1.793-2.363,3.078-3.078
		c1.284-0.715,2.694-1.072,4.23-1.072c1.535,0,2.833,0.351,3.893,1.052c1.059,0.702,1.867,1.529,2.423,2.483l-0.238,0.635
		l0.357-3.495h3.416v16.444h-3.694v-4.29l0.397,0.953c-0.106,0.266-0.337,0.603-0.695,1.014c-0.358,0.41-0.834,0.827-1.43,1.251
		s-1.278,0.774-2.045,1.053C50.866,57.342,50.006,57.481,49.053,57.481z M50.046,54.423c0.926,0,1.761-0.172,2.502-0.517
		c0.741-0.344,1.356-0.827,1.847-1.45c0.49-0.621,0.828-1.37,1.013-2.244v-3.217c-0.212-0.795-0.583-1.489-1.112-2.086
		c-0.53-0.596-1.166-1.059-1.907-1.39c-0.742-0.331-1.563-0.497-2.462-0.497c-0.98,0-1.881,0.238-2.701,0.716
		c-0.821,0.477-1.477,1.139-1.966,1.985c-0.49,0.848-0.735,1.841-0.735,2.979c0,1.06,0.251,2.025,0.755,2.899
		c0.503,0.874,1.178,1.563,2.026,2.065C48.152,54.171,49.066,54.423,50.046,54.423z"/>
	<path fill="#5B69AF" d="M59.936,57.084V26.34h3.694v30.744H59.936z M62.479,51.841l-0.357-3.535l9.97-8.023l2.264,1.946
		L62.479,51.841z M67.603,46.161l7.547,10.923h-4.33l-5.68-8.857L67.603,46.161z"/>
	<path fill="#5B69AF" d="M81.544,57.481c-1.536,0-2.934-0.332-4.191-0.993c-1.258-0.662-2.251-1.635-2.979-2.92
		c-0.729-1.284-1.093-2.853-1.093-4.707c0-1.827,0.384-3.408,1.152-4.746c0.768-1.337,1.794-2.363,3.078-3.078
		s2.694-1.072,4.23-1.072c1.535,0,2.833,0.351,3.893,1.052c1.059,0.702,1.867,1.529,2.423,2.483l-0.238,0.635l0.357-3.495h3.416
		v16.444h-3.694v-4.29l0.397,0.953c-0.106,0.266-0.338,0.603-0.695,1.014c-0.357,0.41-0.834,0.827-1.43,1.251
		s-1.278,0.774-2.046,1.053C83.357,57.342,82.497,57.481,81.544,57.481z M82.536,54.423c0.927,0,1.761-0.172,2.503-0.517
		c0.741-0.344,1.356-0.827,1.847-1.45c0.49-0.621,0.827-1.37,1.013-2.244v-3.217c-0.212-0.795-0.582-1.489-1.112-2.086
		c-0.529-0.596-1.165-1.059-1.906-1.39s-1.563-0.497-2.463-0.497c-0.979,0-1.88,0.238-2.7,0.716
		c-0.821,0.477-1.477,1.139-1.967,1.985c-0.49,0.848-0.734,1.841-0.734,2.979c0,1.06,0.251,2.025,0.754,2.899
		s1.179,1.563,2.026,2.065C80.643,54.171,81.557,54.423,82.536,54.423z"/>
	<path fill="#5B69AF" d="M95.725,40.64l0.357,4.767l-0.199-0.636c0.424-1.006,1.039-1.86,1.848-2.562
		c0.807-0.702,1.654-1.245,2.542-1.629c0.887-0.384,1.661-0.576,2.323-0.576l-0.198,3.654c-1.245-0.079-2.338,0.159-3.277,0.715
		c-0.94,0.557-1.682,1.298-2.225,2.225c-0.543,0.928-0.813,1.92-0.813,2.979v7.507h-3.654V40.64H95.725z"/>
	<path fill="#5B69AF" d="M109.825,57.481c-1.536,0-2.934-0.332-4.191-0.993c-1.258-0.662-2.251-1.635-2.979-2.92
		c-0.729-1.284-1.093-2.853-1.093-4.707c0-1.827,0.384-3.408,1.152-4.746c0.768-1.337,1.794-2.363,3.078-3.078
		s2.694-1.072,4.23-1.072c1.535,0,2.833,0.351,3.893,1.052c1.059,0.702,1.867,1.529,2.423,2.483l-0.238,0.635l0.357-3.495h3.416
		v16.444h-3.694v-4.29l0.397,0.953c-0.106,0.266-0.338,0.603-0.695,1.014c-0.357,0.41-0.834,0.827-1.43,1.251
		s-1.278,0.774-2.046,1.053C111.639,57.342,110.778,57.481,109.825,57.481z M110.817,54.423c0.927,0,1.761-0.172,2.503-0.517
		c0.741-0.344,1.356-0.827,1.847-1.45c0.49-0.621,0.827-1.37,1.013-2.244v-3.217c-0.212-0.795-0.582-1.489-1.112-2.086
		c-0.529-0.596-1.165-1.059-1.906-1.39s-1.563-0.497-2.463-0.497c-0.979,0-1.88,0.238-2.7,0.716
		c-0.821,0.477-1.477,1.139-1.967,1.985c-0.49,0.848-0.734,1.841-0.734,2.979c0,1.06,0.251,2.025,0.754,2.899
		s1.179,1.563,2.026,2.065C108.924,54.171,109.838,54.423,110.817,54.423z"/>
</g>
<path fill="none" d="M20.781,22.318c-0.286,0-0.571,0.007-0.853,0.021c0.867,8.425,8.004,15.018,16.653,15.018
	c0.286,0,0.57-0.009,0.854-0.022C36.568,28.911,29.429,22.318,20.781,22.318z"/>
<path fill="none" d="M40.441,36.902c7.376-1.748,12.883-8.385,12.883-16.288c0-9.232-7.511-16.743-16.743-16.743
	c-8.79,0-16.014,6.81-16.686,15.431c0.293-0.013,0.588-0.023,0.885-0.023C30.958,19.279,39.362,27.007,40.441,36.902z"/>
<path fill="none" d="M16.921,22.771C9.544,24.521,4.038,31.157,4.038,39.06c0,9.233,7.511,16.743,16.743,16.743
	c8.79,0,16.014-6.81,16.687-15.431c-0.294,0.013-0.589,0.022-0.886,0.022C26.404,40.395,18,32.667,16.921,22.771z"/>
<linearGradient id="SVGID_1_" gradientUnits="userSpaceOnUse" x1="56.3613" y1="31.3662" x2="16.8014" y2="31.3662">
	<stop  offset="0" style="stop-color:#FFEF26"/>
	<stop  offset="0.0167" style="stop-color:#FFE51E"/>
	<stop  offset="0.0797" style="stop-color:#E6C600"/>
	<stop  offset="0.1442" style="stop-color:#D5B100"/>
	<stop  offset="0.2104" style="stop-color:#CBA400"/>
	<stop  offset="0.2809" style="stop-color:#C7A000"/>
	<stop  offset="0.6685" style="stop-color:#FEE7A8"/>
	<stop  offset="1" style="stop-color:#CEB54F"/>
</linearGradient>
<path fill="url(#SVGID_1_)" d="M19.928,22.339c-1.03,0.052-2.034,0.202-3.006,0.432c1.079,9.896,9.482,17.623,19.66,17.623
	c0.297,0,0.592-0.01,0.886-0.022c0.033-0.434,0.056-0.87,0.056-1.313c0-0.582-0.031-1.156-0.088-1.725
	c-0.283,0.014-0.567,0.022-0.854,0.022C27.932,37.357,20.794,30.764,19.928,22.339z"/>
<linearGradient id="SVGID_2_" gradientUnits="userSpaceOnUse" x1="56.3613" y1="20.415" x2="16.8252" y2="20.415">
	<stop  offset="0" style="stop-color:#FFEF26"/>
	<stop  offset="0.0167" style="stop-color:#FFE51E"/>
	<stop  offset="0.0797" style="stop-color:#E6C600"/>
	<stop  offset="0.1442" style="stop-color:#D5B100"/>
	<stop  offset="0.2104" style="stop-color:#CBA400"/>
	<stop  offset="0.2809" style="stop-color:#C7A000"/>
	<stop  offset="0.6685" style="stop-color:#FEE7A8"/>
	<stop  offset="1" style="stop-color:#CEB54F"/>
</linearGradient>
<path fill="url(#SVGID_2_)" d="M56.361,20.614c0-10.907-8.873-19.781-19.78-19.781c-10.593,0-19.266,8.37-19.756,18.845
	c0.998-0.204,2.023-0.329,3.07-0.375c0.671-8.621,7.896-15.431,16.686-15.431c9.232,0,16.743,7.511,16.743,16.743
	c0,7.903-5.507,14.54-12.883,16.288c0.077,0.709,0.12,1.429,0.12,2.157c0,0.314-0.009,0.626-0.024,0.937
	C49.555,38.159,56.361,30.167,56.361,20.614z"/>
<linearGradient id="SVGID_3_" gradientUnits="userSpaceOnUse" x1="1.2559" y1="44.7949" x2="35.5091" y2="25.0188">
	<stop  offset="0" style="stop-color:#FFEF26"/>
	<stop  offset="0.0119" style="stop-color:#FFE820"/>
	<stop  offset="0.0761" style="stop-color:#E9C800"/>
	<stop  offset="0.1417" style="stop-color:#D8B300"/>
	<stop  offset="0.2091" style="stop-color:#CDA600"/>
	<stop  offset="0.2809" style="stop-color:#C9A200"/>
	<stop  offset="0.6685" style="stop-color:#FEE7A8"/>
	<stop  offset="1" style="stop-color:#FDDC5E"/>
</linearGradient>
<path fill="url(#SVGID_3_)" d="M19.928,22.339c0.282-0.014,0.567-0.021,0.853-0.021c8.648,0,15.787,6.593,16.654,15.017
	c1.03-0.052,2.034-0.201,3.006-0.433c-1.079-9.895-9.483-17.623-19.66-17.623c-0.297,0-0.592,0.011-0.885,0.023
	c-0.034,0.433-0.057,0.87-0.057,1.312C19.839,21.196,19.869,21.772,19.928,22.339z"/>
<linearGradient id="SVGID_4_" gradientUnits="userSpaceOnUse" x1="3.6538" y1="48.9492" x2="37.9078" y2="29.1727">
	<stop  offset="0" style="stop-color:#FFEF26"/>
	<stop  offset="0.0119" style="stop-color:#FFE820"/>
	<stop  offset="0.0761" style="stop-color:#E9C800"/>
	<stop  offset="0.1417" style="stop-color:#D8B300"/>
	<stop  offset="0.2091" style="stop-color:#CDA600"/>
	<stop  offset="0.2809" style="stop-color:#C9A200"/>
	<stop  offset="0.6685" style="stop-color:#FEE7A8"/>
	<stop  offset="1" style="stop-color:#FDDC5E"/>
</linearGradient>
<path fill="url(#SVGID_4_)" d="M20.781,55.803c-9.232,0-16.743-7.51-16.743-16.743c0-7.902,5.506-14.539,12.883-16.288
	c-0.078-0.708-0.12-1.428-0.12-2.157c0-0.314,0.009-0.626,0.024-0.936C7.807,21.516,1,29.508,1,39.06
	c0,10.907,8.874,19.781,19.781,19.781c10.593,0,19.266-8.37,19.756-18.845c-0.998,0.204-2.024,0.329-3.07,0.376
	C36.795,48.993,29.57,55.803,20.781,55.803z"/>
<linearGradient id="SVGID_5_" gradientUnits="userSpaceOnUse" x1="56.3613" y1="21.0371" x2="16.8012" y2="21.0371">
	<stop  offset="0" style="stop-color:#FFEF26"/>
	<stop  offset="0.0167" style="stop-color:#FFE51E"/>
	<stop  offset="0.0797" style="stop-color:#E6C600"/>
	<stop  offset="0.1442" style="stop-color:#D5B100"/>
	<stop  offset="0.2104" style="stop-color:#CBA400"/>
	<stop  offset="0.2809" style="stop-color:#C7A000"/>
	<stop  offset="0.6685" style="stop-color:#FEE7A8"/>
	<stop  offset="1" style="stop-color:#CEB54F"/>
</linearGradient>
<path fill="url(#SVGID_5_)" d="M16.921,22.771c0.973-0.23,1.976-0.38,3.006-0.432c-0.059-0.567-0.089-1.144-0.089-1.725
	c0-0.442,0.022-0.878,0.057-1.312c-1.047,0.046-2.072,0.171-3.07,0.375c-0.015,0.31-0.024,0.622-0.024,0.936
	C16.801,21.344,16.843,22.063,16.921,22.771z"/>
<linearGradient id="SVGID_6_" gradientUnits="userSpaceOnUse" x1="-4.7617" y1="34.3672" x2="29.4891" y2="14.5924">
	<stop  offset="0" style="stop-color:#FFEF26"/>
	<stop  offset="0.0119" style="stop-color:#FFE820"/>
	<stop  offset="0.0761" style="stop-color:#E9C800"/>
	<stop  offset="0.1417" style="stop-color:#D8B300"/>
	<stop  offset="0.2091" style="stop-color:#CDA600"/>
	<stop  offset="0.2809" style="stop-color:#C9A200"/>
	<stop  offset="0.6685" style="stop-color:#FEE7A8"/>
	<stop  offset="1" style="stop-color:#FDDC5E"/>
</linearGradient>
<path fill="url(#SVGID_6_)" d="M16.921,22.771c0.973-0.23,1.976-0.38,3.006-0.432c-0.059-0.567-0.089-1.144-0.089-1.725
	c0-0.442,0.022-0.878,0.057-1.312c-1.047,0.046-2.072,0.171-3.07,0.375c-0.015,0.31-0.024,0.622-0.024,0.936
	C16.801,21.344,16.843,22.063,16.921,22.771z"/>
<linearGradient id="SVGID_7_" gradientUnits="userSpaceOnUse" x1="56.3618" y1="38.6377" x2="16.8017" y2="38.6377">
	<stop  offset="0" style="stop-color:#FFEF26"/>
	<stop  offset="0.0167" style="stop-color:#FFE51E"/>
	<stop  offset="0.0797" style="stop-color:#E6C600"/>
	<stop  offset="0.1442" style="stop-color:#D5B100"/>
	<stop  offset="0.2104" style="stop-color:#CBA400"/>
	<stop  offset="0.2809" style="stop-color:#C7A000"/>
	<stop  offset="0.6685" style="stop-color:#FEE7A8"/>
	<stop  offset="1" style="stop-color:#CEB54F"/>
</linearGradient>
<path fill="url(#SVGID_7_)" d="M40.441,36.902c-0.973,0.231-1.977,0.381-3.006,0.433c0.058,0.568,0.088,1.143,0.088,1.725
	c0,0.442-0.022,0.879-0.056,1.313c1.045-0.047,2.072-0.172,3.07-0.376c0.015-0.311,0.024-0.622,0.024-0.937
	C40.561,38.331,40.518,37.611,40.441,36.902z"/>
</svg>
